<?xml version="1.0" encoding="UTF-8" standalone="no"?><!-- Generator: Gravitdesign.com --><svg xmlns="http://www.w3.org/2000/svg" xmlns:xlink="http://www.w3.org/1999/xlink" style="isolation:isolate" viewBox="0 0 1553 564.746" width="1553pt" height="564.746pt"><defs><clipPath id="_clipPath_vxEJac2cwFCiIBfc03Bcaikmn3cX8b51"><rect width="1553" height="564.746"/></clipPath></defs><g clip-path="url(#_clipPath_vxEJac2cwFCiIBfc03Bcaikmn3cX8b51)"><g><path d=" M 1445.633 459.479 C 1450.124 447.228 1463.715 440.928 1475.966 445.418 C 1488.217 449.908 1494.517 463.5 1490.027 475.751 C 1485.536 488.001 1471.945 494.302 1459.694 489.811 C 1447.443 485.321 1441.143 471.729 1445.633 459.479 Z  M 1451.848 461.757 C 1455.081 452.936 1464.867 448.4 1473.688 451.633 C 1482.508 454.866 1487.045 464.652 1483.811 473.473 C 1480.578 482.293 1470.792 486.829 1461.972 483.596 C 1453.151 480.363 1448.615 470.577 1451.848 461.757 Z " fill-rule="evenodd" fill="rgb(76,255,201)"/><path d=" M 1478.176 448.938 Q 1501.773 410.452 1507.876 391.629 Q 1514.102 351.847 1511.232 333.014" fill="none" vector-effect="non-scaling-stroke" stroke-width="4" stroke="rgb(76,255,201)" stroke-linejoin="round" stroke-linecap="round" stroke-miterlimit="3"/><path d=" M 1541.647 344.162 Q 1531.254 361.237 1508.388 390.233" fill="none" vector-effect="non-scaling-stroke" stroke-width="4" stroke="rgb(76,255,201)" stroke-linejoin="round" stroke-linecap="round" stroke-miterlimit="3"/><path d=" M 1490.751 434.622 C 1510.755 444.648 1504.458 485.014 1497.288 509.507" fill="none" vector-effect="non-scaling-stroke" stroke-width="4" stroke="rgb(76,255,201)" stroke-linejoin="round" stroke-linecap="round" stroke-miterlimit="3"/><line x1="1495.58" y1="401.299" x2="1495.58" y2="313.608" vector-effect="non-scaling-stroke" stroke-width="4" stroke="rgb(76,255,201)" stroke-linejoin="round" stroke-linecap="round" stroke-miterlimit="3"/><path d=" M 1496.385 400.471 L 1507.978 405.31 L 1504.793 412.941 L 1493.2 408.102 L 1495.707 402.08" fill="none" vector-effect="non-scaling-stroke" stroke-width="4" stroke="rgb(76,255,201)" stroke-linejoin="round" stroke-linecap="round" stroke-miterlimit="3"/><g><path d=" M 1496.979 507.669 L 1456.27 533.749 L 1475.989 559.828 L 1516.698 533.749 L 1498.251 508.942" fill="none" vector-effect="non-scaling-stroke" stroke-width="2" stroke="rgb(76,255,201)" stroke-linejoin="round" stroke-linecap="round" stroke-miterlimit="3"/><line x1="1482.304" y1="548.547" x2="1476.995" y2="541.926" vector-effect="non-scaling-stroke" stroke-width="2" stroke="rgb(76,255,201)" stroke-linejoin="round" stroke-linecap="round" stroke-miterlimit="3"/><line x1="1473.788" y1="537.775" x2="1470.082" y2="533.23" vector-effect="non-scaling-stroke" stroke-width="2" stroke="rgb(76,255,201)" stroke-linejoin="round" stroke-linecap="round" stroke-miterlimit="3"/><line x1="1489.818" y1="543.132" x2="1478.095" y2="528.21" vector-effect="non-scaling-stroke" stroke-width="2" stroke="rgb(76,255,201)" stroke-linejoin="round" stroke-linecap="round" stroke-miterlimit="3"/><line x1="1493.337" y1="534.565" x2="1484.821" y2="523.794" vector-effect="non-scaling-stroke" stroke-width="2" stroke="rgb(76,255,201)" stroke-linejoin="round" stroke-linecap="round" stroke-miterlimit="3"/></g><path d=" M 1496.385 400.471 L 1507.978 405.31 L 1504.793 412.941 L 1493.2 408.102 L 1496.385 400.471 Z " fill="rgb(76,255,201)"/></g><g><path d=" M 14.199 304.974 C 14.158 295.376 27.82 214.978 29.667 209.725 C 31.514 204.472 32.669 200.967 39.436 200.77 C 46.203 200.572 75.517 203.786 80.955 204.026 C 86.393 204.266 91.885 209.049 90.724 217.052 C 89.564 225.054 74.263 314.54 72.814 318 C 71.365 321.46 69.547 325.646 63.859 324.513 C 58.171 323.38 30.903 319.168 26.41 318 C 21.918 316.832 14.24 314.682 14.199 304.974 Z " fill="none" vector-effect="non-scaling-stroke" stroke-width="4" stroke="rgb(76,255,201)" stroke-linejoin="round" stroke-linecap="round" stroke-miterlimit="3"/><path d=" M 85.996 197.965 Q 93.8 164.684 96.58 159.702 Q 146.606 171.246 152.752 172.728 Q 138.122 223.474 134.028 250.067 L 94.137 240.298" fill="none" vector-effect="non-scaling-stroke" stroke-width="4" stroke="rgb(76,255,201)" stroke-linejoin="round" stroke-linecap="round" stroke-miterlimit="3"/><line x1="104.474" y1="181.799" x2="118.722" y2="185.087" vector-effect="non-scaling-stroke" stroke-width="4" stroke="rgb(76,255,201)" stroke-linejoin="round" stroke-linecap="round" stroke-miterlimit="3"/><line x1="127.491" y1="187.279" x2="137.355" y2="189.471" vector-effect="non-scaling-stroke" stroke-width="4" stroke="rgb(76,255,201)" stroke-linejoin="round" stroke-linecap="round" stroke-miterlimit="3"/><line x1="100.09" y1="197.143" x2="131.875" y2="204.816" vector-effect="non-scaling-stroke" stroke-width="4" stroke="rgb(76,255,201)" stroke-linejoin="round" stroke-linecap="round" stroke-miterlimit="3"/><line x1="104.474" y1="212.488" x2="127.491" y2="217.968" vector-effect="non-scaling-stroke" stroke-width="4" stroke="rgb(76,255,201)" stroke-linejoin="round" stroke-linecap="round" stroke-miterlimit="3"/><path d=" M 44.015 237.532 L 67.814 240.582 C 64.569 253.063 62.02 264.708 60.16 275.511 L 37.21 271.897 C 38.887 260.153 41.158 248.7 44.015 237.532 Z " fill="none" vector-effect="non-scaling-stroke" stroke-width="2" stroke="rgb(76,255,201)" stroke-linejoin="round" stroke-linecap="round" stroke-miterlimit="3"/><path d=" M 16.043 226.923 L 17.671 217.968 L 34.768 219.596" fill="none" vector-effect="non-scaling-stroke" stroke-width="2" stroke="rgb(76,255,201)" stroke-linejoin="round" stroke-linecap="round" stroke-miterlimit="3"/><path d=" M 74.192 224.423 L 97.801 226.865 L 96.173 237.448" fill="none" vector-effect="non-scaling-stroke" stroke-width="2" stroke="rgb(76,255,201)" stroke-linejoin="round" stroke-linecap="round" stroke-miterlimit="3"/><path d=" M 7.506 276.118 L 6.692 283.445 L 24.602 285.887" fill="none" vector-effect="non-scaling-stroke" stroke-width="2" stroke="rgb(76,255,201)" stroke-linejoin="round" stroke-linecap="round" stroke-miterlimit="3"/><path d=" M 69.378 294.028 L 88.102 296.471 L 89.73 288.33" fill="none" vector-effect="non-scaling-stroke" stroke-width="2" stroke="rgb(76,255,201)" stroke-linejoin="round" stroke-linecap="round" stroke-miterlimit="3"/><line x1="48.209" y1="246.208" x2="54.136" y2="247.576" vector-effect="non-scaling-stroke" stroke-width="2" stroke="rgb(76,255,201)" stroke-linejoin="round" stroke-linecap="round" stroke-miterlimit="3"/><line x1="57.783" y1="248.488" x2="61.886" y2="249.399" vector-effect="non-scaling-stroke" stroke-width="2" stroke="rgb(76,255,201)" stroke-linejoin="round" stroke-linecap="round" stroke-miterlimit="3"/><line x1="46.385" y1="252.591" x2="59.606" y2="255.782" vector-effect="non-scaling-stroke" stroke-width="2" stroke="rgb(76,255,201)" stroke-linejoin="round" stroke-linecap="round" stroke-miterlimit="3"/><line x1="48.209" y1="258.973" x2="57.783" y2="261.253" vector-effect="non-scaling-stroke" stroke-width="2" stroke="rgb(76,255,201)" stroke-linejoin="round" stroke-linecap="round" stroke-miterlimit="3"/><line x1="55.538" y1="210.99" x2="66.121" y2="211.804" vector-effect="non-scaling-stroke" stroke-width="4" stroke="rgb(76,255,201)" stroke-linejoin="round" stroke-linecap="round" stroke-miterlimit="3"/></g><g><path d=" M 804.897 174.403 C 804.897 160.966 815.807 150.057 829.244 150.057 C 842.681 150.057 853.59 160.966 853.59 174.403 C 853.59 187.84 842.681 198.75 829.244 198.75 C 815.807 198.75 804.897 187.84 804.897 174.403 Z  M 811.714 174.403 C 811.714 164.729 819.569 156.874 829.244 156.874 C 838.918 156.874 846.773 164.729 846.773 174.403 C 846.773 184.078 838.918 191.933 829.244 191.933 C 819.569 191.933 811.714 184.078 811.714 174.403 Z " fill-rule="evenodd" fill="rgb(76,255,201)"/><path d=" M 792.451 263.6 L 771.489 262.29 L 767.559 208.576 L 792.451 198.75 L 812.758 197.44 L 818.654 254.43 L 792.451 263.6 Z " fill="none" vector-effect="non-scaling-stroke" stroke-width="2" stroke="rgb(76,255,201)" stroke-linejoin="round" stroke-linecap="round" stroke-miterlimit="3"/><line x1="785.901" y1="208.576" x2="811.714" y2="197.44" vector-effect="non-scaling-stroke" stroke-width="2" stroke="rgb(76,255,201)" stroke-linejoin="round" stroke-linecap="round" stroke-miterlimit="3"/><path d=" M 791.141 262.945 L 786.556 209.073 L 767.559 209.073" fill="none" vector-effect="non-scaling-stroke" stroke-width="2" stroke="rgb(76,255,201)" stroke-linejoin="round" stroke-linecap="round" stroke-miterlimit="3"/><ellipse vector-effect="non-scaling-stroke" cx="779.7047004644962" cy="239.6241874068565" rx="5.594987260945231" ry="5.634591960099158" fill="none" stroke-width="2" stroke="rgb(76,255,201)" stroke-linejoin="round" stroke-linecap="round" stroke-miterlimit="3"/><path d=" M 827.824 194.771 Q 827.581 227.53 824.549 262.29 Q 814.012 279.943 811.714 285.872 Q 809.417 291.802 797.692 334.347" fill="none" vector-effect="non-scaling-stroke" stroke-width="4" stroke="rgb(76,255,201)" stroke-linejoin="round" stroke-linecap="round" stroke-miterlimit="3"/><path d=" M 806.208 259.015 C 825.485 236.912 834.269 237.111 828.48 202.68" fill="none" vector-effect="non-scaling-stroke" stroke-width="4" stroke="rgb(76,255,201)" stroke-linejoin="round" stroke-linecap="round" stroke-miterlimit="3"/><path d=" M 815.378 213.816 Q 820.894 208.967 827.169 202.68" fill="none" vector-effect="non-scaling-stroke" stroke-width="4" stroke="rgb(76,255,201)" stroke-linejoin="round" stroke-linecap="round" stroke-miterlimit="3"/><path d=" M 862.543 326.486 C 846.243 305.375 833.307 287.07 825.204 262.29" fill="none" vector-effect="non-scaling-stroke" stroke-width="4" stroke="rgb(76,255,201)" stroke-linejoin="round" stroke-linecap="round" stroke-miterlimit="3"/></g><g><path d=" M 1309.304 178.989 C 1309.304 165.552 1320.213 154.643 1333.651 154.643 C 1347.088 154.643 1357.997 165.552 1357.997 178.989 C 1357.997 192.426 1347.088 203.335 1333.651 203.335 C 1320.213 203.335 1309.304 192.426 1309.304 178.989 Z  M 1316.121 178.989 C 1316.121 169.314 1323.976 161.46 1333.651 161.46 C 1343.325 161.46 1351.18 169.314 1351.18 178.989 C 1351.18 188.664 1343.325 196.518 1333.651 196.518 C 1323.976 196.518 1316.121 188.664 1316.121 178.989 Z " fill-rule="evenodd" fill="rgb(76,255,201)"/><g><path d=" M 1351.446 233.492 L 1392.06 233.492 L 1392.06 260.98 L 1351.446 260.98 L 1351.446 233.492 Z " fill="none" vector-effect="non-scaling-stroke" stroke-width="2" stroke="rgb(76,255,201)" stroke-linejoin="round" stroke-linecap="round" stroke-miterlimit="3"/><path d=" M 1362.582 221.81 C 1365.769 221.81 1365.129 226.917 1362.582 226.917 Q 1360.035 226.917 1358.652 226.917 L 1358.652 217.746 Q 1359.858 217.746 1361.927 217.746 C 1364.796 217.746 1364.635 221.81 1362.582 221.81 Q 1360.529 221.81 1358.652 221.81" fill="none" vector-effect="non-scaling-stroke" stroke-width="2" stroke="rgb(76,255,201)" stroke-linejoin="round" stroke-linecap="round" stroke-miterlimit="3"/><line x1="1368.478" y1="217.746" x2="1368.478" y2="226.917" vector-effect="non-scaling-stroke" stroke-width="2" stroke="rgb(76,255,201)" stroke-linejoin="round" stroke-linecap="round" stroke-miterlimit="3"/><path d=" M 1373.063 217.746 L 1373.063 226.917 L 1377.649 226.917" fill="none" vector-effect="non-scaling-stroke" stroke-width="2" stroke="rgb(76,255,201)" stroke-linejoin="round" stroke-linecap="round" stroke-miterlimit="3"/><path d=" M 1380.924 226.917 L 1384.854 217.746 L 1388.785 226.917" fill="none" vector-effect="non-scaling-stroke" stroke-width="2" stroke="rgb(76,255,201)" stroke-linejoin="round" stroke-linecap="round" stroke-miterlimit="3"/><path d=" M 1392.715 226.917 L 1392.715 217.88 L 1399.265 226.917 L 1399.265 217.746" fill="none" vector-effect="non-scaling-stroke" stroke-width="2" stroke="rgb(76,255,201)" stroke-linejoin="round" stroke-linecap="round" stroke-miterlimit="3"/><line x1="1382.889" y1="223.8" x2="1386.819" y2="223.8" vector-effect="non-scaling-stroke" stroke-width="2" stroke="rgb(76,255,201)" stroke-linejoin="round" stroke-linecap="round" stroke-miterlimit="3"/><line x1="1352.756" y1="240.673" x2="1390.75" y2="240.673" vector-effect="non-scaling-stroke" stroke-width="2" stroke="rgb(76,255,201)" stroke-linejoin="round" stroke-linecap="round" stroke-miterlimit="3"/><line x1="1381.579" y1="241.983" x2="1381.579" y2="249.844" vector-effect="non-scaling-stroke" stroke-width="2" stroke="rgb(76,255,201)" stroke-linejoin="round" stroke-linecap="round" stroke-miterlimit="3"/><line x1="1371.098" y1="234.669" x2="1371.098" y2="259.015" vector-effect="non-scaling-stroke" stroke-width="2" stroke="rgb(76,255,201)" stroke-linejoin="round" stroke-linecap="round" stroke-miterlimit="3"/><line x1="1352.101" y1="251.154" x2="1391.405" y2="251.809" vector-effect="non-scaling-stroke" stroke-width="2" stroke="rgb(76,255,201)" stroke-linejoin="round" stroke-linecap="round" stroke-miterlimit="3"/></g><path d=" M 1378.229 270.673 L 1388.204 270.673 L 1388.204 290.458 L 1378.229 290.458 L 1378.229 270.673 Z " fill="rgb(76,255,201)"/><path d=" M 1331.139 200.169 L 1325.899 261.635 Q 1319.233 264.246 1297.076 326.486" fill="none" vector-effect="non-scaling-stroke" stroke-width="4" stroke="rgb(76,255,201)" stroke-linejoin="round" stroke-linecap="round" stroke-miterlimit="3"/><line x1="1340.965" y1="211.196" x2="1331.139" y2="206.61" vector-effect="non-scaling-stroke" stroke-width="4" stroke="rgb(76,255,201)" stroke-linejoin="round" stroke-linecap="round" stroke-miterlimit="3"/><path d=" M 1342.275 270.806 L 1342.275 206.61 L 1424.813 206.61 L 1424.813 271.461 L 1342.275 270.806 Z " fill="none" vector-effect="non-scaling-stroke" stroke-width="4" stroke="rgb(76,255,201)" stroke-linejoin="round" stroke-linecap="round" stroke-miterlimit="3"/><line x1="1363.892" y1="290.458" x2="1402.541" y2="290.458" vector-effect="non-scaling-stroke" stroke-width="4" stroke="rgb(76,255,201)" stroke-linejoin="round" stroke-linecap="round" stroke-miterlimit="3"/><path d=" M 1349.481 329.761 C 1336.966 295.231 1330.131 278.151 1325.899 263.6" fill="none" vector-effect="non-scaling-stroke" stroke-width="4" stroke="rgb(76,255,201)" stroke-linejoin="round" stroke-linecap="round" stroke-miterlimit="3"/><path d=" M 1287.906 218.377 C 1299.852 224.685 1306.326 223.823 1316.121 217.88 Q 1325.917 211.936 1330.484 205.955" fill="none" vector-effect="non-scaling-stroke" stroke-width="4" stroke="rgb(76,255,201)" stroke-linejoin="round" stroke-linecap="round" stroke-miterlimit="3"/><line x1="1289.871" y1="204.645" x2="1291.181" y2="220.367" vector-effect="non-scaling-stroke" stroke-width="4" stroke="rgb(76,255,201)" stroke-linejoin="round" stroke-linecap="round" stroke-miterlimit="3"/><line x1="1283.975" y1="217.091" x2="1289.871" y2="217.091" vector-effect="non-scaling-stroke" stroke-width="4" stroke="rgb(76,255,201)" stroke-linejoin="round" stroke-linecap="round" stroke-miterlimit="3"/><line x1="1284.63" y1="221.81" x2="1290.526" y2="221.81" vector-effect="non-scaling-stroke" stroke-width="4" stroke="rgb(76,255,201)" stroke-linejoin="round" stroke-linecap="round" stroke-miterlimit="3"/><line x1="1283.32" y1="212.639" x2="1289.216" y2="212.639" vector-effect="non-scaling-stroke" stroke-width="4" stroke="rgb(76,255,201)" stroke-linejoin="round" stroke-linecap="round" stroke-miterlimit="3"/><line x1="1291.836" y1="212.639" x2="1292.491" y2="221.13" vector-effect="non-scaling-stroke" stroke-width="4" stroke="rgb(76,255,201)" stroke-linejoin="round" stroke-linecap="round" stroke-miterlimit="3"/></g><g><path d=" M 1148.775 174.403 C 1148.775 160.966 1159.684 150.057 1173.121 150.057 C 1186.558 150.057 1197.467 160.966 1197.467 174.403 C 1197.467 187.84 1186.558 198.75 1173.121 198.75 C 1159.684 198.75 1148.775 187.84 1148.775 174.403 Z  M 1155.591 174.403 C 1155.591 164.729 1163.446 156.874 1173.121 156.874 C 1182.795 156.874 1190.65 164.729 1190.65 174.403 C 1190.65 184.078 1182.795 191.933 1173.121 191.933 C 1163.446 191.933 1155.591 184.078 1155.591 174.403 Z " fill-rule="evenodd" fill="rgb(76,255,201)"/><path d=" M 1116.677 256.395 L 1155.98 256.395 L 1155.98 202.898 L 1115.367 202.898 L 1116.677 256.395 Z " fill="none" vector-effect="non-scaling-stroke" stroke-width="2" stroke="rgb(76,255,201)" stroke-linejoin="round" stroke-linecap="round" stroke-miterlimit="3"/><path d=" M 1135.018 215.51 L 1137.787 215.51 L 1137.787 249.189 L 1135.018 249.189 L 1135.018 215.51 Z " fill="none" vector-effect="non-scaling-stroke" stroke-width="2" stroke="rgb(76,255,201)" stroke-linejoin="round" stroke-linecap="round" stroke-miterlimit="3"/><path d=" M 1124.537 224.297 L 1127.359 224.297 L 1127.359 249.189 L 1124.537 249.189 L 1124.537 224.297 Z " fill="none" vector-effect="non-scaling-stroke" stroke-width="2" stroke="rgb(76,255,201)" stroke-linejoin="round" stroke-linecap="round" stroke-miterlimit="3"/><path d=" M 1145.499 220.633 L 1148.084 220.633 L 1148.084 249.189 L 1145.499 249.189 L 1145.499 220.633 Z " fill="none" vector-effect="non-scaling-stroke" stroke-width="2" stroke="rgb(76,255,201)" stroke-linejoin="round" stroke-linecap="round" stroke-miterlimit="3"/><path d=" M 1136.983 334.347 C 1142.591 320.258 1148.215 288.493 1166.461 264.255 Q 1172.712 248.699 1173.121 198.75" fill="none" vector-effect="non-scaling-stroke" stroke-width="4" stroke="rgb(76,255,201)" stroke-linejoin="round" stroke-linecap="round" stroke-miterlimit="3"/><path d=" M 1155.591 245.968 C 1180.094 243.495 1186.874 234.034 1174.322 204.645" fill="none" vector-effect="non-scaling-stroke" stroke-width="4" stroke="rgb(76,255,201)" stroke-linejoin="round" stroke-linecap="round" stroke-miterlimit="3"/><path d=" M 1156.635 226.42 Q 1164.148 219.858 1171.702 203.99" fill="none" vector-effect="non-scaling-stroke" stroke-width="4" stroke="rgb(76,255,201)" stroke-linejoin="round" stroke-linecap="round" stroke-miterlimit="3"/><path d=" M 1203.144 327.141 C 1184.907 298.701 1176.696 289.24 1168.426 261.635" fill="none" vector-effect="non-scaling-stroke" stroke-width="4" stroke="rgb(76,255,201)" stroke-linejoin="round" stroke-linecap="round" stroke-miterlimit="3"/></g><g><path d=" M 942.718 185.43 C 942.718 171.993 953.628 161.084 967.065 161.084 C 980.502 161.084 991.411 171.993 991.411 185.43 C 991.411 198.867 980.502 209.777 967.065 209.777 C 953.628 209.777 942.718 198.867 942.718 185.43 Z  M 949.535 185.43 C 949.535 175.756 957.39 167.901 967.065 167.901 C 976.739 167.901 984.594 175.756 984.594 185.43 C 984.594 195.105 976.739 202.96 967.065 202.96 C 957.39 202.96 949.535 195.105 949.535 185.43 Z " fill-rule="evenodd" fill="rgb(76,255,201)"/><path d=" M 1001.783 188.16 L 1035.191 193.4 L 1026.02 241.874 L 992.612 236.634 L 1001.783 188.16 Z " fill="none" vector-effect="non-scaling-stroke" stroke-width="2" stroke="rgb(76,255,201)" stroke-linejoin="round" stroke-linecap="round" stroke-miterlimit="3"/><line x1="1006.368" y1="152.786" x2="1006.368" y2="163.922" vector-effect="non-scaling-stroke" stroke-width="2" stroke="rgb(76,255,201)" stroke-linejoin="round" stroke-linecap="round" stroke-miterlimit="3"/><line x1="1000.473" y1="158.682" x2="1011.56" y2="158.682" vector-effect="non-scaling-stroke" stroke-width="2" stroke="rgb(76,255,201)" stroke-linejoin="round" stroke-linecap="round" stroke-miterlimit="3"/><line x1="1019.469" y1="158.027" x2="1030.605" y2="158.027" vector-effect="non-scaling-stroke" stroke-width="2" stroke="rgb(76,255,201)" stroke-linejoin="round" stroke-linecap="round" stroke-miterlimit="3"/><line x1="1020.124" y1="172.875" x2="1031.26" y2="172.875" vector-effect="non-scaling-stroke" stroke-width="2" stroke="rgb(76,255,201)" stroke-linejoin="round" stroke-linecap="round" stroke-miterlimit="3"/><line x1="1020.124" y1="179.692" x2="1031.26" y2="179.692" vector-effect="non-scaling-stroke" stroke-width="2" stroke="rgb(76,255,201)" stroke-linejoin="round" stroke-linecap="round" stroke-miterlimit="3"/><line x1="1001.783" y1="182.264" x2="1011.56" y2="171.783" vector-effect="non-scaling-stroke" stroke-width="2" stroke="rgb(76,255,201)" stroke-linejoin="round" stroke-linecap="round" stroke-miterlimit="3"/><line x1="1002.438" y1="172.438" x2="1011.56" y2="182.264" vector-effect="non-scaling-stroke" stroke-width="2" stroke="rgb(76,255,201)" stroke-linejoin="round" stroke-linecap="round" stroke-miterlimit="3"/><line x1="999.818" y1="203.226" x2="1031.26" y2="207.811" vector-effect="non-scaling-stroke" stroke-width="2" stroke="rgb(76,255,201)" stroke-linejoin="round" stroke-linecap="round" stroke-miterlimit="3"/><path d=" M 1003.261 209.777 L 1007.24 210.274 L 1006.504 214.751 L 1002.438 214.253 L 1003.261 209.777 Z " fill="rgb(76,255,201)" vector-effect="non-scaling-stroke" stroke-width="2" stroke="rgb(76,255,201)" stroke-linejoin="round" stroke-linecap="round" stroke-miterlimit="3"/><path d=" M 1012.87 211.353 L 1016.849 211.85 L 1016.114 216.327 L 1012.047 215.83 L 1012.87 211.353 Z " fill="rgb(76,255,201)" vector-effect="non-scaling-stroke" stroke-width="2" stroke="rgb(76,255,201)" stroke-linejoin="round" stroke-linecap="round" stroke-miterlimit="3"/><path d=" M 1022.041 212.53 L 1026.02 213.027 L 1025.284 217.504 L 1021.218 217.007 L 1022.041 212.53 Z " fill="rgb(76,255,201)" vector-effect="non-scaling-stroke" stroke-width="2" stroke="rgb(76,255,201)" stroke-linejoin="round" stroke-linecap="round" stroke-miterlimit="3"/><path d=" M 1020.075 221.834 L 1024.055 222.331 L 1023.319 226.808 L 1019.253 226.311 L 1020.075 221.834 Z " fill="rgb(76,255,201)" vector-effect="non-scaling-stroke" stroke-width="2" stroke="rgb(76,255,201)" stroke-linejoin="round" stroke-linecap="round" stroke-miterlimit="3"/><path d=" M 1010.905 220.524 L 1014.884 221.021 L 1014.148 225.498 L 1010.082 225.001 L 1010.905 220.524 Z " fill="rgb(76,255,201)" vector-effect="non-scaling-stroke" stroke-width="2" stroke="rgb(76,255,201)" stroke-linejoin="round" stroke-linecap="round" stroke-miterlimit="3"/><path d=" M 1001.295 219.081 L 1005.275 219.578 L 1004.539 224.055 L 1000.473 223.557 L 1001.295 219.081 Z " fill="rgb(76,255,201)" vector-effect="non-scaling-stroke" stroke-width="2" stroke="rgb(76,255,201)" stroke-linejoin="round" stroke-linecap="round" stroke-miterlimit="3"/><path d=" M 999.549 228.385 L 1003.529 228.882 L 1002.793 233.359 L 998.727 232.861 L 999.549 228.385 Z " fill="rgb(76,255,201)" vector-effect="non-scaling-stroke" stroke-width="2" stroke="rgb(76,255,201)" stroke-linejoin="round" stroke-linecap="round" stroke-miterlimit="3"/><path d=" M 1008.939 230.217 L 1012.919 230.714 L 1012.183 235.191 L 1008.117 234.693 L 1008.939 230.217 Z " fill="rgb(76,255,201)" vector-effect="non-scaling-stroke" stroke-width="2" stroke="rgb(76,255,201)" stroke-linejoin="round" stroke-linecap="round" stroke-miterlimit="3"/><path d=" M 1018.497 231.393 L 1022.477 231.891 L 1021.741 236.368 L 1017.674 235.87 L 1018.497 231.393 Z " fill="rgb(76,255,201)" vector-effect="non-scaling-stroke" stroke-width="2" stroke="rgb(76,255,201)" stroke-linejoin="round" stroke-linecap="round" stroke-miterlimit="3"/><path d=" M 964.992 207.156 Q 966.398 225.952 973.615 248.425 Q 980.833 270.898 983.441 272.662 Q 1002.556 295.152 1012.919 331.617" fill="none" vector-effect="non-scaling-stroke" stroke-width="4" stroke="rgb(76,255,201)" stroke-linejoin="round" stroke-linecap="round" stroke-miterlimit="3"/><path d=" M 961.169 330.962 Q 972.669 313.081 976.891 301.485 Q 981.112 289.888 981.476 270.042" fill="none" vector-effect="non-scaling-stroke" stroke-width="4" stroke="rgb(76,255,201)" stroke-linejoin="round" stroke-linecap="round" stroke-miterlimit="3"/><path d=" M 964.992 212.397 C 958.212 227.612 972.517 243.676 980.166 243.185 Q 987.814 242.693 1003.748 235.324" fill="none" vector-effect="non-scaling-stroke" stroke-width="4" stroke="rgb(76,255,201)" stroke-linejoin="round" stroke-linecap="round" stroke-miterlimit="3"/><path d=" M 967.065 216.327 C 975.248 224.54 978.702 231.265 984.096 231.393 Q 989.49 231.522 993.922 228.773" fill="none" vector-effect="non-scaling-stroke" stroke-width="4" stroke="rgb(76,255,201)" stroke-linejoin="round" stroke-linecap="round" stroke-miterlimit="3"/></g><g><path d=" M 387.545 176.805 C 387.545 163.368 398.454 152.459 411.891 152.459 C 425.328 152.459 436.237 163.368 436.237 176.805 C 436.237 190.242 425.328 201.151 411.891 201.151 C 398.454 201.151 387.545 190.242 387.545 176.805 Z  M 394.362 176.805 C 394.362 167.13 402.216 159.276 411.891 159.276 C 421.566 159.276 429.42 167.13 429.42 176.805 C 429.42 186.48 421.566 194.334 411.891 194.334 C 402.216 194.334 394.362 186.48 394.362 176.805 Z " fill-rule="evenodd" fill="rgb(76,255,201)"/><path d=" M 404.139 197.003 C 401.224 209.891 397.733 234.58 395.183 255.068 C 394.886 257.451 394.644 259.5 394.362 261.854 C 391.455 286.06 377.446 302.467 356.32 326.049" fill="none" vector-effect="non-scaling-stroke" stroke-width="4" stroke="rgb(76,255,201)" stroke-linejoin="round" stroke-linecap="round" stroke-miterlimit="3"/><path d=" M 444.098 197.003 L 477.506 205.519 L 460.474 253.993 L 428.377 244.822 L 444.098 197.003 Z " fill="none" vector-effect="non-scaling-stroke" stroke-width="2" stroke="rgb(76,255,201)" stroke-linejoin="round" stroke-linecap="round" stroke-miterlimit="3"/><line x1="446.718" y1="210.759" x2="455.234" y2="212.724" vector-effect="non-scaling-stroke" stroke-width="2" stroke="rgb(76,255,201)" stroke-linejoin="round" stroke-linecap="round" stroke-miterlimit="3"/><line x1="460.474" y1="214.034" x2="466.37" y2="215.345" vector-effect="non-scaling-stroke" stroke-width="2" stroke="rgb(76,255,201)" stroke-linejoin="round" stroke-linecap="round" stroke-miterlimit="3"/><line x1="444.098" y1="219.93" x2="463.095" y2="224.515" vector-effect="non-scaling-stroke" stroke-width="2" stroke="rgb(76,255,201)" stroke-linejoin="round" stroke-linecap="round" stroke-miterlimit="3"/><line x1="446.718" y1="229.101" x2="460.474" y2="232.376" vector-effect="non-scaling-stroke" stroke-width="2" stroke="rgb(76,255,201)" stroke-linejoin="round" stroke-linecap="round" stroke-miterlimit="3"/><path d=" M 440.168 236.961 C 401.403 250.105 392.098 222.507 401.519 206.174" fill="none" vector-effect="non-scaling-stroke" stroke-width="4" stroke="rgb(76,255,201)" stroke-linejoin="round" stroke-linecap="round" stroke-miterlimit="3"/><path d=" M 431.652 331.945 C 419.756 299.246 420.192 296.436 394.362 267.749" fill="none" vector-effect="non-scaling-stroke" stroke-width="4" stroke="rgb(76,255,201)" stroke-linejoin="round" stroke-linecap="round" stroke-miterlimit="3"/><path d=" M 432.962 227.791 Q 424.767 230.9 424.446 231.066 Q 408.833 223.127 403.484 208.794" fill="none" vector-effect="non-scaling-stroke" stroke-width="4" stroke="rgb(76,255,201)" stroke-linejoin="round" stroke-linecap="round" stroke-miterlimit="3"/></g><g><path d=" M 576.46 186.522 C 576.46 173.085 587.369 162.176 600.807 162.176 C 614.244 162.176 625.153 173.085 625.153 186.522 C 625.153 199.959 614.244 210.868 600.807 210.868 C 587.369 210.868 576.46 199.959 576.46 186.522 Z  M 583.277 186.522 C 583.277 176.847 591.132 168.993 600.807 168.993 C 610.481 168.993 618.336 176.847 618.336 186.522 C 618.336 196.197 610.481 204.051 600.807 204.051 C 591.132 204.051 583.277 196.197 583.277 186.522 Z " fill-rule="evenodd" fill="rgb(76,255,201)"/><path d=" M 591.745 205.628 C 581.189 236.324 569.436 248.217 579.954 266.548 Q 585.174 267.858 598.295 269.823 C 611.417 271.788 625.214 280.397 632.358 296.681 Q 639.503 312.965 642.184 320.263" fill="none" vector-effect="non-scaling-stroke" stroke-width="4" stroke="rgb(76,255,201)" stroke-linejoin="round" stroke-linecap="round" stroke-miterlimit="3"/><path d=" M 588.47 215.454 C 587.616 241.799 600.781 242.109 609.431 242.311 Q 618.081 242.513 621.877 244.931" fill="none" vector-effect="non-scaling-stroke" stroke-width="4" stroke="rgb(76,255,201)" stroke-linejoin="round" stroke-linecap="round" stroke-miterlimit="3"/><path d=" M 565.542 233.795 L 570.783 275.719 L 605.501 276.374" fill="none" vector-effect="non-scaling-stroke" stroke-width="4" stroke="rgb(76,255,201)" stroke-linejoin="round" stroke-linecap="round" stroke-miterlimit="3"/><line x1="604.846" y1="320.263" x2="601.571" y2="278.339" vector-effect="non-scaling-stroke" stroke-width="4" stroke="rgb(76,255,201)" stroke-linejoin="round" stroke-linecap="round" stroke-miterlimit="3"/><line x1="557.682" y1="320.263" x2="576.023" y2="276.374" vector-effect="non-scaling-stroke" stroke-width="4" stroke="rgb(76,255,201)" stroke-linejoin="round" stroke-linecap="round" stroke-miterlimit="3"/><line x1="603.536" y1="258.687" x2="687.383" y2="258.687" vector-effect="non-scaling-stroke" stroke-width="4" stroke="rgb(76,255,201)" stroke-linejoin="round" stroke-linecap="round" stroke-miterlimit="3"/><line x1="681.488" y1="322.228" x2="681.488" y2="259.343" vector-effect="non-scaling-stroke" stroke-width="4" stroke="rgb(76,255,201)" stroke-linejoin="round" stroke-linecap="round" stroke-miterlimit="3"/><line x1="621.877" y1="259.343" x2="621.877" y2="322.228" vector-effect="non-scaling-stroke" stroke-width="4" stroke="rgb(76,255,201)" stroke-linejoin="round" stroke-linecap="round" stroke-miterlimit="3"/><line x1="605.501" y1="252.137" x2="676.247" y2="252.137" vector-effect="non-scaling-stroke" stroke-width="4" stroke="rgb(76,255,201)" stroke-linejoin="round" stroke-linecap="round" stroke-miterlimit="3"/><path d=" M 638.254 250.172 L 648.735 220.694 L 687.383 220.694 L 677.557 250.172 L 638.254 250.172 Z " fill="rgb(76,255,201)" vector-effect="non-scaling-stroke" stroke-width="4" stroke="rgb(76,255,201)" stroke-linejoin="round" stroke-linecap="round" stroke-miterlimit="3"/><path d=" M 660.526 234.45 L 661.836 237.726 L 664.456 234.45" fill="none" vector-effect="non-scaling-stroke" stroke-width="4" stroke="rgb(116,159,147)" stroke-linejoin="round" stroke-linecap="round" stroke-miterlimit="3"/></g><path d=" M 393.629 388.607 C 346.129 393.241 293.751 354.253 322.149 308.693 Q 315.703 304.128 310.361 299.609 C 275.206 269.865 275.967 241.602 312.646 214.819 Q 264.074 153.45 346.166 150.048 Q 351.304 83.493 409.783 106.096" fill="none" vector-effect="non-scaling-stroke" stroke-width="4" stroke="rgb(116,159,147)" stroke-linejoin="round" stroke-linecap="round" stroke-miterlimit="3"/><path d=" M 1394.063 109.521 C 1451.392 84.419 1549.831 99.978 1486.669 163.101 Q 1581.394 182.744 1515.656 250.725 Q 1550.894 323.244 1467.894 310.244 Q 1477.831 380.59 1416.894 343.744 Q 1397.517 421.546 1345.782 392.008" fill="none" vector-effect="non-scaling-stroke" stroke-width="4" stroke="rgb(116,159,147)" stroke-linejoin="round" stroke-linecap="round" stroke-miterlimit="3"/><g><path d=" M 1440.088 526.079 C 1387.449 504.013 1352.433 519.991 1348.707 561.756 L 1362.743 547.341" fill="none" vector-effect="non-scaling-stroke" stroke-width="2" stroke="rgb(116,159,147)" stroke-linejoin="round" stroke-linecap="round" stroke-miterlimit="3"/><line x1="1339.262" y1="544.463" x2="1348.707" y2="561.756" vector-effect="non-scaling-stroke" stroke-width="2" stroke="rgb(116,159,147)" stroke-linejoin="round" stroke-linecap="round" stroke-miterlimit="3"/></g><g><path d=" M 149.648 271.382 C 169.73 297.981 226.23 301.817 241 296 L 231.439 291.088" fill="none" vector-effect="non-scaling-stroke" stroke-width="2" stroke="rgb(116,159,147)" stroke-linejoin="round" stroke-linecap="round" stroke-miterlimit="3"/><line x1="235.197" y1="302.833" x2="241" y2="296" vector-effect="non-scaling-stroke" stroke-width="2" stroke="rgb(116,159,147)" stroke-linejoin="round" stroke-linecap="round" stroke-miterlimit="3"/></g><g clip-path="url(#_clipPath_SiCvWWvXMmtORYvhRLfb7mtpeTp9NCbv)"></g><defs><clipPath id="_clipPath_SiCvWWvXMmtORYvhRLfb7mtpeTp9NCbv"><rect x="0" y="0" width="421" height="35.464" transform="matrix(1,0,0,1,0,0)"/></clipPath></defs><g clip-path="url(#_clipPath_Yj89EFpGXpcpbhO8CshVaLL2wXmRFdUD)"></g><defs><clipPath id="_clipPath_Yj89EFpGXpcpbhO8CshVaLL2wXmRFdUD"><rect x="0" y="0" width="887" height="35.464" transform="matrix(1,0,0,1,577.32,0)"/></clipPath></defs></g></svg>